<svg width="48" height="47" viewBox="0 0 48 47" fill="none" xmlns="http://www.w3.org/2000/svg">
<rect x="0.5" width="47" height="47" rx="23.5" fill="#EEAA6C"/>
<path d="M17.5 34.6293V36H30.5V34.6293C30.5 33.9808 30.1039 33.4551 29.6153 33.4551C29.5952 33.4551 29.5881 33.4196 29.6056 33.4063L30.1005 33.0309L30.3199 32.798C30.4337 32.6771 30.5 32.4941 30.5 32.3006V32.1546C30.5 31.9056 30.4106 31.6714 30.2593 31.5241L28.8565 30.1588C28.3582 29.6737 27.9278 29.0764 27.585 28.3939C27.5139 28.2524 27.5246 28.0648 27.6108 27.9389L28.1012 27.2229C28.1633 27.1322 28.1148 26.9867 28.0225 26.9867H27.4211C26.7368 25.7156 25.3684 22.4107 25.3684 19.36C25.3684 18.5903 26.1154 18.1581 27.0418 18.1469C27.0659 18.1466 27.0897 18.1394 27.1098 18.1258C27.2266 18.0469 27.2429 17.8795 27.1437 17.7789L27.1186 17.7535C27.0925 17.7271 27.0609 17.7067 27.0262 17.694L25.9034 17.2832C24.6733 16.8331 23.3267 16.8331 22.0966 17.2832L20.9738 17.694C20.9391 17.7067 20.9075 17.7271 20.8814 17.7535L20.8563 17.7789C20.7571 17.8795 20.7734 18.0469 20.8902 18.1258C20.9103 18.1394 20.9341 18.1466 20.9582 18.1469C21.8846 18.1581 22.6316 18.5903 22.6316 19.36C22.6316 22.4107 21.2632 25.7156 20.5789 26.9867H19.9775C19.8852 26.9867 19.8367 27.1322 19.8988 27.2229L20.3892 27.9389C20.4754 28.0648 20.4861 28.2524 20.415 28.3939C20.0722 29.0764 19.6418 29.6737 19.1435 30.1588L17.7407 31.5241C17.5894 31.6714 17.5 31.9056 17.5 32.1546V32.3006C17.5 32.4941 17.5663 32.6771 17.6801 32.798L17.8995 33.0309L18.3944 33.4063C18.4119 33.4196 18.4048 33.4551 18.3847 33.4551C17.8961 33.4551 17.5 33.9808 17.5 34.6293Z" fill="#BA712F"/>
<path d="M27.25 13.2933C27.25 15.1122 25.7949 16.5867 24 16.5867C22.2051 16.5867 20.75 15.1122 20.75 13.2933C20.75 11.4745 22.2051 10 24 10C25.7949 10 27.25 11.4745 27.25 13.2933Z" fill="#BA712F"/>
</svg>
