<svg width="47" height="46" viewBox="0 0 47 46" fill="none" xmlns="http://www.w3.org/2000/svg">
<g clip-path="url(#clip0_160_1386)">
<path fill-rule="evenodd" clip-rule="evenodd" d="M3.73354 3.23354C0.5 6.46708 0.5 11.6714 0.5 22.08V23.92C0.5 34.3286 0.5 39.5329 3.73354 42.7665C6.96708 46 12.1714 46 22.58 46H24.42C34.8286 46 40.0329 46 43.2665 42.7665C46.5 39.5329 46.5 34.3286 46.5 23.92V22.08C46.5 11.6714 46.5 6.46708 43.2665 3.23354C40.0329 0 34.8286 0 24.42 0H22.58C12.1714 0 6.96708 0 3.73354 3.23354ZM8.26261 13.9918C8.51178 25.9518 14.4918 33.1393 24.9759 33.1393H25.5702V26.2968C29.4227 26.6801 32.3358 29.4976 33.505 33.1393H38.9484C37.4534 27.6959 33.5241 24.6868 31.0707 23.5368C33.5241 22.1184 36.9741 18.6684 37.7982 13.9918H32.8531C31.7798 17.7868 28.5985 21.2368 25.5702 21.5626V13.9918H20.625V27.2551C17.5583 26.4884 13.6868 22.7701 13.5143 13.9918H8.26261Z" fill="#EEAA6C"/>
</g>
<defs>
<clipPath id="clip0_160_1386">
<rect width="46" height="46" fill="white" transform="translate(0.5)"/>
</clipPath>
</defs>
</svg>
