<svg width="25" height="24" viewBox="0 0 25 24" fill="none" xmlns="http://www.w3.org/2000/svg">
<path d="M1 1H2.59435C3.43772 1 4.19046 1.52904 4.47612 2.32256L5.08 4M8.5 13.5L20.6994 11.6927C21.4888 11.5757 22.1332 11.0007 22.3388 10.2296L23.6646 5.25766C23.8339 4.62282 23.3554 4 22.6984 4H5.08M8.5 13.5L5.08 4M8.5 13.5C7.93572 14.6286 8.34084 16.0045 9.42278 16.6537C9.79943 16.8797 10.232 17 10.6713 17H21M11 21C11 22.1046 10.1046 23 9 23C7.89543 23 7 22.1046 7 21C7 19.8954 7.89543 19 9 19C10.1046 19 11 19.8954 11 21ZM23 21C23 22.1046 22.1046 23 21 23C19.8954 23 19 22.1046 19 21C19 19.8954 19.8954 19 21 19C22.1046 19 23 19.8954 23 21Z" stroke="#BA712F" stroke-width="2" stroke-linecap="round"/>
</svg>
