<svg width="14" height="26" viewBox="0 0 14 26" fill="none" xmlns="http://www.w3.org/2000/svg">
<path d="M0.5 24.6293V26H13.5V24.6293C13.5 23.9808 13.1039 23.4551 12.6153 23.4551C12.5952 23.4551 12.5881 23.4196 12.6056 23.4063L13.1005 23.0309L13.3199 22.798C13.4337 22.6771 13.5 22.4941 13.5 22.3006V22.1546C13.5 21.9056 13.4106 21.6714 13.2593 21.5241L11.8565 20.1588C11.3582 19.6737 10.9278 19.0764 10.585 18.3939C10.5139 18.2524 10.5246 18.0648 10.6108 17.9389L11.1012 17.2229C11.1633 17.1322 11.1148 16.9867 11.0225 16.9867H10.4211C9.73684 15.7156 8.36842 12.4107 8.36842 9.36C8.36842 8.59027 9.11538 8.15814 10.0418 8.14689C10.0659 8.1466 10.0897 8.13942 10.1098 8.12585C10.2266 8.04695 10.2429 7.8795 10.1437 7.77892L10.1186 7.75352C10.0925 7.72705 10.0609 7.70674 10.0262 7.69403L8.90341 7.28317C7.67334 6.83306 6.32666 6.83306 5.09659 7.28317L3.97381 7.69403C3.93906 7.70674 3.90751 7.72705 3.88139 7.75352L3.85633 7.77892C3.75708 7.8795 3.77344 8.04695 3.89023 8.12585C3.91033 8.13942 3.93407 8.1466 3.95822 8.14689C4.88462 8.15814 5.63158 8.59027 5.63158 9.36C5.63158 12.4107 4.26316 15.7156 3.57895 16.9867H2.97755C2.88517 16.9867 2.83667 17.1322 2.89881 17.2229L3.38923 17.9389C3.47544 18.0648 3.48605 18.2524 3.41495 18.3939C3.07217 19.0764 2.64182 19.6737 2.14349 20.1588L0.740722 21.5241C0.5894 21.6714 0.5 21.9056 0.5 22.1546V22.3006C0.5 22.4941 0.566263 22.6771 0.680093 22.798L0.899464 23.0309L1.39444 23.4063C1.41194 23.4196 1.40484 23.4551 1.38468 23.4551C0.896087 23.4551 0.5 23.9808 0.5 24.6293Z" fill="#BA712F"/>
<path d="M10.25 3.29333C10.25 5.11219 8.79493 6.58667 7 6.58667C5.20507 6.58667 3.75 5.11219 3.75 3.29333C3.75 1.47448 5.20507 0 7 0C8.79493 0 10.25 1.47448 10.25 3.29333Z" fill="#BA712F"/>
</svg>
