<svg width="17" height="16" viewBox="0 0 17 16" fill="none" xmlns="http://www.w3.org/2000/svg">
<ellipse cx="6.10013" cy="2.93325" rx="5.63333" ry="2.6" fill="#FFF9F4"/>
<path d="M0.788086 12.4675C1.56177 13.477 3.64841 14.2009 6.10059 14.2009C6.63602 14.2009 7.15393 14.1639 7.64453 14.0994C8.19543 14.6334 8.83971 15.0712 9.55176 15.3845C8.59828 15.7262 7.4014 15.9333 6.10059 15.9333C2.98982 15.9333 0.467311 14.7694 0.466797 13.3337C0.466817 13.03 0.580711 12.7385 0.788086 12.4675Z" fill="#FFF9F4"/>
<circle cx="12.1671" cy="10.2999" r="4.76667" fill="#FFF9F4"/>
<path d="M0.788086 9C1.51709 9.95165 3.41271 10.6475 5.68164 10.7246C5.72078 11.3312 5.84286 11.9149 6.03711 12.4648C2.95527 12.4491 0.466797 11.2923 0.466797 9.86621C0.46691 9.56245 0.580546 9.27097 0.788086 9ZM7.41504 10.6611C7.42413 10.7815 7.4363 10.9008 7.4541 11.0186C7.44179 10.9372 7.43099 10.8552 7.42285 10.7725L7.41406 10.6611H7.41504Z" fill="#FFF9F4"/>
<path d="M0.788086 5.5332C1.56168 6.54276 3.64828 7.26655 6.10059 7.2666C6.20769 7.2666 6.3143 7.26347 6.41992 7.26074C6.13537 7.79772 5.92305 8.37915 5.79785 8.99219C2.82754 8.91953 0.466797 7.78843 0.466797 6.39941C0.466898 6.09567 0.580584 5.80416 0.788086 5.5332Z" fill="#FFF9F4"/>
</svg>
