<svg width="8" height="9" viewBox="0 0 8 9" fill="none" xmlns="http://www.w3.org/2000/svg">
<path d="M3.26137 1.53451C3.58352 0.663888 4.81491 0.663888 5.13707 1.53451L5.52514 2.58326C5.62643 2.85698 5.84224 3.07279 6.11596 3.17407L7.16471 3.56215C8.03533 3.88431 8.03533 5.11569 7.16471 5.43785L6.11596 5.82593C5.84224 5.92721 5.62643 6.14302 5.52514 6.41674L5.13707 7.46549C4.81491 8.33611 3.58352 8.33611 3.26137 7.46549L2.87329 6.41674C2.77201 6.14302 2.5562 5.92721 2.28248 5.82593L1.23372 5.43785C0.363107 5.11569 0.363106 3.88431 1.23372 3.56215L2.28248 3.17407C2.5562 3.07279 2.77201 2.85698 2.87329 2.58326L3.26137 1.53451Z" fill="#BA712F"/>
</svg>
