<svg width="18" height="19" viewBox="0 0 18 19" fill="none" xmlns="http://www.w3.org/2000/svg">
<path d="M8.26137 1.53451C8.58353 0.663887 9.81491 0.663888 10.1371 1.53451L11.8756 6.23281C11.9769 6.50653 12.1927 6.72234 12.4664 6.82362L17.1647 8.56215C18.0353 8.88431 18.0353 10.1157 17.1647 10.4379L12.4664 12.1764C12.1927 12.2777 11.9769 12.4935 11.8756 12.7672L10.1371 17.4655C9.81491 18.3361 8.58352 18.3361 8.26137 17.4655L6.52284 12.7672C6.42155 12.4935 6.20574 12.2777 5.93202 12.1764L1.23372 10.4379C0.363106 10.1157 0.363107 8.88431 1.23372 8.56215L5.93202 6.82362C6.20574 6.72234 6.42155 6.50652 6.52284 6.23281L8.26137 1.53451Z" fill="#BA712F"/>
</svg>
