<svg width="20" height="20" viewBox="0 0 20 20" fill="none" xmlns="http://www.w3.org/2000/svg">
<path fill-rule="evenodd" clip-rule="evenodd" d="M1.33166 8.65357C6.53153 5.91987 9.99893 4.11764 11.7338 3.2469C16.6874 0.760738 17.7167 0.328866 18.3876 0.314605C18.5351 0.311469 18.8651 0.355595 19.0788 0.564844C19.2592 0.74153 19.3089 0.980207 19.3326 1.14772C19.3564 1.31524 19.386 1.69685 19.3625 1.99503C19.094 5.39839 17.9325 13.6574 17.3416 17.4693C17.0916 19.0822 16.5992 19.623 16.1226 19.6759C15.0868 19.7909 14.3002 18.8499 13.297 18.0563C11.7271 16.8146 10.8402 16.0416 9.31631 14.8298C7.55523 13.4295 8.69687 12.6598 9.7005 11.402C9.96315 11.0728 14.5271 6.06364 14.6154 5.60923C14.6264 5.5524 14.6367 5.34056 14.5324 5.2287C14.4281 5.11684 14.2742 5.15509 14.1631 5.18551C14.0056 5.22863 11.4977 7.22886 6.6393 11.1862C5.92744 11.776 5.28265 12.0634 4.70494 12.0484C4.06807 12.0318 2.84297 11.6139 1.93224 11.2566C0.815193 10.8185 -0.0726153 10.5868 0.00469282 9.84271C0.0449597 9.45513 0.487282 9.05875 1.33166 8.65357Z" fill="#BA712F"/>
</svg>
