<svg width="47" height="46" viewBox="0 0 47 46" fill="none" xmlns="http://www.w3.org/2000/svg">
<g clip-path="url(#clip0_132_2107)">
<path fill-rule="evenodd" clip-rule="evenodd" d="M46.5 23C46.5 35.7025 36.2025 46 23.5 46C10.7975 46 0.5 35.7025 0.5 23C0.5 10.2975 10.7975 0 23.5 0C36.2025 0 46.5 10.2975 46.5 23ZM24.3242 16.9796C22.0871 17.9101 17.6161 19.836 10.9111 22.7572C9.82235 23.1902 9.25199 23.6137 9.20007 24.0279C9.11232 24.7279 9.98886 25.0035 11.1825 25.3788C11.3448 25.4299 11.5131 25.4828 11.6855 25.5388C12.8599 25.9206 14.4396 26.3672 15.2608 26.3849C16.0057 26.401 16.8371 26.0939 17.7551 25.4636C24.0197 21.2348 27.2536 19.0973 27.4566 19.0512C27.5998 19.0187 27.7983 18.9778 27.9328 19.0974C28.0673 19.2169 28.0541 19.4433 28.0398 19.504C27.953 19.8742 24.5122 23.073 22.7316 24.7284C22.1766 25.2445 21.7828 25.6105 21.7023 25.6941C21.522 25.8814 21.3382 26.0586 21.1616 26.2288C20.0706 27.2805 19.2525 28.0692 21.2069 29.3572C22.1461 29.9761 22.8977 30.4879 23.6475 30.9985C24.4663 31.5562 25.2831 32.1123 26.3398 32.805C26.609 32.9815 26.8661 33.1648 27.1165 33.3433C28.0695 34.0227 28.9256 34.633 29.9833 34.5357C30.5979 34.4792 31.2327 33.9013 31.5551 32.1777C32.3171 28.1044 33.8148 19.2787 34.1609 15.6419C34.1912 15.3232 34.1531 14.9154 34.1225 14.7364C34.0918 14.5574 34.0278 14.3024 33.7951 14.1136C33.5196 13.89 33.0941 13.8428 32.9039 13.8462C32.0388 13.8614 30.7116 14.3229 24.3242 16.9796Z" fill="#EEAA6C"/>
</g>
<defs>
<clipPath id="clip0_132_2107">
<rect width="46" height="46" fill="white" transform="translate(0.5)"/>
</clipPath>
</defs>
</svg>
