<svg width="22" height="22" viewBox="0 0 22 22" fill="none" xmlns="http://www.w3.org/2000/svg">
<path fill-rule="evenodd" clip-rule="evenodd" d="M1.51239 9.47086C7.41795 6.36615 11.3559 4.31934 13.3263 3.33042C18.9521 0.506852 20.1211 0.0163687 20.883 0.000172686C21.0506 -0.00338946 21.4253 0.0467251 21.668 0.284372C21.873 0.485037 21.9294 0.756106 21.9563 0.946358C21.9833 1.13661 22.0169 1.57001 21.9902 1.90866C21.6854 5.7739 20.3662 15.1538 19.6951 19.483C19.4111 21.3148 18.852 21.929 18.3107 21.9891C17.1343 22.1197 16.2409 21.051 15.1015 20.1497C13.3186 18.7394 12.3113 17.8615 10.5807 16.4853C8.58058 14.8949 9.87715 14.0208 11.017 12.5922C11.3153 12.2184 16.4986 6.52943 16.5989 6.01335C16.6115 5.94881 16.6231 5.70822 16.5046 5.58118C16.3862 5.45414 16.2114 5.49758 16.0852 5.53213C15.9064 5.5811 13.0581 7.85279 7.54035 12.3472C6.73187 13.0171 5.99958 13.3435 5.34347 13.3264C4.62016 13.3075 3.2288 12.8329 2.19447 12.4272C0.925826 11.9296 -0.0824703 11.6665 0.00532971 10.8214C0.0510613 10.3812 0.553413 9.93102 1.51239 9.47086Z" fill="#FFF9F4"/>
</svg>
