<svg width="47" height="46" viewBox="0 0 47 46" fill="none" xmlns="http://www.w3.org/2000/svg">
<path d="M0.5 46L3.73342 34.1876C1.73817 30.7299 0.68975 26.8103 0.691667 22.7911C0.697417 10.2254 10.9228 0 23.4866 0C29.5835 0.00191667 35.3067 2.37667 39.6115 6.68533C43.9144 10.994 46.2834 16.721 46.2815 22.8122C46.2758 35.3797 36.0503 45.6052 23.4866 45.6052C19.6724 45.6032 15.9138 44.6468 12.5846 42.8298L0.5 46ZM13.1443 38.7033C16.3566 40.6103 19.4233 41.7527 23.4789 41.7546C33.9209 41.7546 42.4271 33.2561 42.4328 22.8083C42.4367 12.3395 33.9708 3.8525 23.4943 3.84867C13.0446 3.84867 4.54417 12.3472 4.54033 22.793C4.53842 27.0576 5.78808 30.2507 7.88684 33.5915L5.97208 40.5835L13.1443 38.7033ZM34.9693 28.2306C34.8275 27.9929 34.448 27.8511 33.8768 27.5655C33.3076 27.2799 30.5073 25.9018 29.9841 25.7121C29.4628 25.5223 29.0833 25.4265 28.7018 25.9977C28.3223 26.5669 27.2298 27.8511 26.8983 28.2306C26.5667 28.6101 26.2332 28.658 25.6639 28.3724C25.0947 28.0868 23.2585 27.4869 21.0831 25.5453C19.3907 24.035 18.2464 22.1701 17.9148 21.5989C17.5833 21.0297 17.8803 20.7211 18.164 20.4374C18.4208 20.1825 18.7333 19.7723 19.0188 19.4388C19.3083 19.1092 19.4022 18.8715 19.5938 18.4901C19.7836 18.1106 19.6897 17.7771 19.5459 17.4915C19.4022 17.2078 18.2637 14.4037 17.7903 13.2633C17.3264 12.1536 16.8568 12.3031 16.508 12.2858L15.4155 12.2667C15.036 12.2667 14.4188 12.4085 13.8975 12.9797C13.3762 13.5508 11.9042 14.927 11.9042 17.7311C11.9042 20.5352 13.9454 23.2434 14.2291 23.6229C14.5147 24.0024 18.2445 29.7563 23.9581 32.223C25.317 32.8095 26.3788 33.1602 27.2049 33.4228C28.5696 33.856 29.8116 33.7947 30.7929 33.649C31.8873 33.4861 34.1624 32.2709 34.6378 30.9407C35.1131 29.6087 35.1131 28.4683 34.9693 28.2306Z" fill="#EEAA6C"/>
</svg>
